#!OML:ASF X:\für Bonn\!DataBase\2005_08_11_Bastian_Final\c3d\Bastian.ASF
:FULLY-SPECIFIED
:DEGREES
241
root 0.781229 5.31587 24.808 -772.576 -190.465 -725.943
lowerback 74.1883 -8.32523 -15.6412
upperback 23.2687 -1.62646 -0.334795
thorax 6.68361 5.12562 7.10363
lowerneck -19.1679 2.3556 0.467945
upperneck -3.87956 4.1034 -7.21903
head 2.2452 2.16773 -2.13746
rclavicle 1.11319e-014 -1.27222e-014
rhumerus -7.69437 11.7164 -77.5767
rradius 21.6255
rwrist -31.2182
rhand -33.6009 -10.3262
rfingers 7.12502
rthumb -6.79433 -40.1972
lclavicle 1.11319e-014 -1.27222e-014
lhumerus 29.0979 -19.9495 8.60341
lradius 60.9762
lwrist 17.4299
lhand -9.7428 -17.2976
lfingers 7.12502
lthumb 16.2313 12.0429
rfemur -67.8469 -19.2446 34.335
rtibia 143.352
rfoot -24.9473 -6.83879
rtoes 21.0018
lfemur -57.7984 40.7183 -2.55698
ltibia 142.225
lfoot -22.7652 -24.0638
ltoes -14.6002
242
root 0.813889 5.28864 24.8211 -773.021 -190.262 -725.89
lowerback 74.1366 -8.20857 -15.7685
upperback 23.2629 -1.56377 -0.392815
thorax 6.68369 5.17936 7.07086
lowerneck -19.0839 2.26668 0.323112
upperneck -3.73916 4.00658 -7.14452
head 2.26854 2.11441 -2.09441
rclavicle -1.11319e-013 9.70069e-014
rhumerus -8.03382 11.5527 -77.9029
rradius 21.4976
rwrist -30.9646
rhand -33.546 -10.4826
rfingers 7.12502
rthumb -6.74128 -40.3553
lclavicle -1.11319e-013 9.70069e-014
lhumerus 29.1608 -20.141 8.51013
lradius 61.2262
lwrist 17.3401
lhand -9.57237 -17.6326
lfingers 7.12502
lthumb 16.3954 11.6945
rfemur -68.3446 -18.3663 34.929
rtibia 142.631
rfoot -24.4748 -7.26248
rtoes 21.1501
lfemur -57.4958 40.324 -2.20716
ltibia 142.169
lfoot -22.4907 -24.2201
ltoes -14.6247
243
root 0.845584 5.26192 24.8352 -773.441 -190.044 -725.828
lowerback 74.0907 -8.13114 -15.8386
upperback 23.233 -1.51617 -0.460849
thorax 6.64891 5.23433 7.00466
lowerneck -18.9726 2.16399 0.175808
upperneck -3.59686 3.88921 -7.05379
head 2.28651 2.05115 -2.0473
rclavicle -3.33958e-014 -7.07673e-014
rhumerus -8.47007 11.517 -78.2296
rradius 21.4961
rwrist -30.8636
rhand -33.5078 -10.7461
rfingers 7.12502
rthumb -6.70448 -40.6199
lclavicle -3.33958e-014 -7.07673e-014
lhumerus 29.2408 -20.3287 8.43574
lradius 61.4484
lwrist 17.233
lhand -9.35539 -17.9602
lfingers 7.12502
lthumb 16.6043 11.3495
rfemur -68.8762 -17.4724 35.4907
rtibia 141.83
rfoot -23.8781 -7.68076
rtoes 21.2244
lfemur -57.2423 39.8753 -1.90752
ltibia 142.111
lfoot -22.1489 -24.4193
ltoes -14.4495
244
root 0.87629 5.23559 24.8501 -773.854 -189.856 -725.767
lowerback 74.0591 -8.03043 -15.9239
upperback 23.2032 -1.4553 -0.507805
thorax 6.61694 5.28794 6.96388
lowerneck -18.9037 2.05503 -0.0346291
upperneck -3.46277 3.78024 -6.9468
head 2.30752 1.99431 -1.98231
rclavicle -4.13472e-014 4.69132e-014
rhumerus -8.87857 11.4997 -78.5264
rradius 21.5364
rwrist -30.7822
rhand -33.4806 -11.0656
rfingers 7.12502
rthumb -6.6782 -40.9403
lclavicle -4.13472e-014 4.69132e-014
lhumerus 29.2727 -20.4982 8.37559
lradius 61.6564
lwrist 17.1489
lhand -9.08411 -18.1942
lfingers 7.12502
lthumb 16.8655 11.0934
rfemur -69.4313 -16.5258 36.0247
rtibia 140.93
rfoot -23.1346 -8.08926
rtoes 21.1732
lfemur -56.9872 39.4745 -1.60365
ltibia 142.045
lfoot -21.8902 -24.561
ltoes -14.5631
245
root 0.906955 5.20926 24.8657 -774.273 -189.656 -725.745
lowerback 74.0485 -7.91187 -16.0312
upperback 23.1436 -1.41096 -0.571941
thorax 6.55573 5.33214 6.9118
lowerneck -18.8242 1.97146 -0.215274
upperneck -3.29743 3.69653 -6.85218
head 2.34002 1.94689 -1.92507
rclavicle 4.77083e-015 7.95139e-014
rhumerus -9.31506 11.5189 -78.8664
rradius 21.5462
rwrist -30.7482
rhand -33.4854 -11.2931
rfingers 7.12502
rthumb -6.68284 -41.1676
lclavicle 4.77083e-015 7.95139e-014
lhumerus 29.2509 -20.6982 8.29483
lradius 61.8671
lwrist 17.0314
lhand -8.81198 -18.3591
lfingers 7.12502
lthumb 17.1274 10.906
rfemur -69.977 -15.5893 36.4695
rtibia 139.951
rfoot -22.1917 -8.45739
rtoes 21.1979
lfemur -56.7339 39.0941 -1.34012
ltibia 141.966
lfoot -21.5819 -24.7638
ltoes -14.4303
246
root 0.935521 5.18193 24.8824 -774.683 -189.477 -725.724
lowerback 74.0403 -7.82042 -16.1005
upperback 23.0865 -1.36706 -0.663534
thorax 6.49281 5.38763 6.81357
lowerneck -18.7779 1.88165 -0.396423
upperneck -3.13026 3.60319 -6.69461
head 2.37705 1.89634 -1.84723
rclavicle 3.49861e-014 -1.43125e-014
rhumerus -9.73973 11.4602 -79.2201
rradius 21.5883
rwrist -30.7569
rhand -33.5221 -11.5401
rfingers 7.12502
rthumb -6.71829 -41.4135
lclavicle 3.49861e-014 -1.43125e-014
lhumerus 29.2845 -20.8907 8.12266
lradius 62.0567
lwrist 16.9447
lhand -8.55684 -18.4096
lfingers 7.12502
lthumb 17.373 10.834
rfemur -70.5005 -14.6827 36.838
rtibia 138.863
rfoot -21.0645 -8.71869
rtoes 20.9562
lfemur -56.5006 38.7334 -1.08848
ltibia 141.891
lfoot -21.2812 -24.9306
ltoes -14.416
247
root 0.964226 5.1532 24.8998 -775.076 -189.295 -725.709
lowerback 74.0058 -7.722 -16.1895
upperback 23.0414 -1.32846 -0.747675
thorax 6.44505 5.43303 6.73581
lowerneck -18.7238 1.80768 -0.569184
upperneck -3.00278 3.5328 -6.59417
head 2.402 1.8583 -1.78838
rclavicle -4.77083e-015 -6.99722e-014
rhumerus -10.1607 11.5802 -79.5647
rradius 21.6742
rwrist -30.9625
rhand -33.5871 -11.7574
rfingers 7.12502
rthumb -6.78104 -41.6288
lclavicle -4.77083e-015 -6.99722e-014
lhumerus 29.2413 -21.0748 7.97941
lradius 62.2594
lwrist 16.8758
lhand -8.27444 -18.3886
lfingers 7.12502
lthumb 17.6448 10.8308
rfemur -71.0316 -13.8314 37.1422
rtibia 137.71
rfoot -19.751 -8.87982
rtoes 20.7745
lfemur -56.3435 38.43 -0.885368
ltibia 141.83
lfoot -21.0275 -25.059
ltoes -14.6965
248
root 0.992357 5.12303 24.9174 -775.468 -189.103 -725.727
lowerback 73.9658 -7.61248 -16.2785
upperback 22.9746 -1.29446 -0.847992
thorax 6.37159 5.4766 6.63745
lowerneck -18.6193 1.74206 -0.690927
upperneck -2.86558 3.45696 -6.493
head 2.42257 1.81577 -1.73928
rclavicle 1.51076e-014 4.69132e-014
rhumerus -10.6323 11.5855 -79.9458
rradius 21.7433
rwrist -31.0697
rhand -33.662 -11.9303
rfingers 7.12502
rthumb -6.85328 -41.7994
lclavicle 1.51076e-014 4.69132e-014
lhumerus 29.2351 -21.279 7.77887
lradius 62.4116
lwrist 16.8574
lhand -7.96554 -18.3532
lfingers 7.12502
lthumb 17.942 10.8392
rfemur -71.5132 -13.0584 37.3573
rtibia 136.485
rfoot -18.2757 -8.95946
rtoes 20.4189
lfemur -56.195 38.1521 -0.723036
ltibia 141.77
lfoot -20.6999 -25.2415
ltoes -14.708
